<?xml version="1.0" encoding="utf-8" ?>
<svg baseProfile="full" height="197" version="1.1" width="257" xmlns="http://www.w3.org/2000/svg" xmlns:ev="http://www.w3.org/2001/xml-events" xmlns:xlink="http://www.w3.org/1999/xlink"><defs /><polygon fill="black" points="191,109 190,110 189,110 188,111 185,111 184,112 179,112 178,113 174,113 173,112 169,112 168,111 87,111 86,112 82,112 81,113 77,113 76,112 71,112 70,111 67,111 66,110 63,110 63,111 62,112 62,119 63,120 63,122 64,123 64,124 67,127 69,127 70,128 106,128 107,129 107,143 106,144 89,144 88,145 87,145 86,146 85,146 84,147 84,149 83,150 83,157 84,158 171,158 172,157 172,150 171,149 171,147 170,146 169,146 168,145 167,145 166,144 149,144 148,143 148,129 149,128 185,128 186,127 188,127 191,124 191,123 192,122 192,120 193,119 193,109" /><polygon fill="black" points="184,66 184,70 186,70 187,69" /><polygon fill="black" points="198,64 197,65 197,68 198,69 198,70 199,71 199,75 200,76 200,83 199,84 199,87 198,88 198,89 197,90 197,91 195,93 195,94 192,97 191,97 188,100 187,100 186,101 184,101 183,102 179,102 178,103 175,103 174,102 170,102 169,101 167,101 166,100 166,97 165,96 158,96 157,97 157,101 158,102 158,104 160,106 161,106 162,105 165,105 166,106 168,106 169,107 173,107 174,108 179,108 180,107 185,107 186,106 188,106 190,104 191,104 193,102 194,102 200,96 200,95 201,94 201,93 202,92 202,91 203,90 203,89 204,88 204,86 205,85 205,74 204,73 204,70 203,69 203,68 202,67 202,66 200,64" /><polygon fill="black" points="99,64 99,69 100,70 100,71 101,72 101,75 102,76 102,83 101,84 101,86 100,87 100,89 99,90 99,91 98,92 98,93 95,96 94,96 94,97 93,98 92,98 90,100 89,100 88,101 86,101 85,102 81,102 80,103 77,103 76,102 72,102 71,101 70,101 68,99 68,97 67,96 60,96 59,97 59,102 60,103 60,104 62,106 63,106 64,105 67,105 68,106 70,106 71,107 75,107 76,108 81,108 82,107 87,107 88,106 90,106 92,104 93,104 94,103 95,103 102,96 102,95 103,94 103,93 105,91 105,89 106,88 106,84 107,83 107,75 106,74 106,70 105,69 105,68 104,67 104,66 102,64" /><polygon fill="black" points="167,63 166,64 166,93 167,94 189,94 190,93 190,75 181,75 179,73 179,64 178,63" /><polygon fill="black" points="75,62 74,63 73,63 72,64 70,64 68,66 67,66 65,68 65,69 64,70 64,71 63,72 63,73 62,74 62,76 61,77 61,81 62,82 62,84 63,85 63,87 64,88 64,89 68,93 69,93 71,95 72,95 73,96 84,96 85,95 86,95 88,93 89,93 92,90 92,89 94,87 94,86 95,85 95,82 96,81 96,77 95,76 95,73 94,72 94,71 91,68 91,67 90,66 89,66 87,64 85,64 84,63 83,63 82,62" /><polygon fill="black" points="170,51 169,52 167,52 166,53 165,53 164,54 163,54 162,55 161,55 160,56 159,56 154,61 154,62 153,63 153,64 151,66 151,67 150,68 150,70 149,71 149,74 148,75 148,84 149,85 149,88 150,89 150,91 152,93 152,94 153,95 155,95 157,93 156,92 156,90 155,89 155,87 154,86 154,84 153,83 153,76 154,75 154,72 155,71 155,70 156,69 156,68 157,67 157,66 163,60 164,60 166,58 167,58 168,57 171,57 172,56 181,56 182,57 185,57 187,59 187,62 189,62 190,63 191,63 192,62 196,62 196,56 195,55 195,54 194,53 192,53 191,54 189,54 188,53 187,53 186,52 184,52 183,51" /><polygon fill="black" points="72,51 71,52 69,52 68,53 67,53 66,54 65,54 64,55 63,55 62,56 61,56 56,61 56,62 54,64 54,65 53,66 53,67 52,68 52,70 51,71 51,73 50,74 50,85 51,86 51,88 52,89 52,90 53,91 53,92 54,93 54,94 55,95 57,95 59,93 59,92 58,91 58,90 57,89 57,88 56,87 56,84 55,83 55,76 56,75 56,72 57,71 57,69 59,67 59,66 66,59 67,59 68,58 69,58 70,57 73,57 74,56 83,56 84,57 87,57 89,59 89,62 91,62 92,63 93,63 94,62 97,62 98,61 98,57 97,56 97,54 96,53 94,53 93,54 91,54 90,53 89,53 88,52 86,52 85,51" /><polygon fill="black" points="161,39 161,41 160,42 160,47 170,47 171,46 182,46 183,47 187,47 188,48 192,48 192,45 191,44 191,43 188,40 186,40 185,39" /><polygon fill="black" points="70,39 69,40 67,40 64,43 64,44 63,45 63,47 62,48 62,49 63,50 64,49 65,49 66,48 67,48 68,47 72,47 73,46 84,46 85,47 95,47 95,42 94,41 94,39" /><polygon fill="black" points="150,22 149,23 148,23 148,27 149,28 149,30 150,31 150,34 151,35 151,41 150,42 150,45 149,46 149,48 148,49 148,50 140,58 139,58 138,59 137,59 136,60 134,60 133,61 122,61 121,60 119,60 117,58 117,55 108,55 108,60 109,61 109,63 110,64 112,64 113,63 115,63 116,64 117,64 118,65 120,65 121,66 135,66 136,65 137,65 138,64 139,64 140,63 141,63 142,62 143,62 144,61 145,61 150,56 150,55 152,53 152,52 153,51 153,50 154,49 154,48 155,47 155,44 156,43 156,33 155,32 155,29 154,28 154,27 153,26 153,25 152,24 152,23 151,23" /><polygon fill="black" points="125,21 125,22 123,24 122,24 121,25 118,25 117,24 114,27 114,29 115,30 114,31 114,33 112,35 111,35 110,36 110,40 111,41 112,41 114,43 114,44 115,45 115,46 114,47 114,49 116,51 121,51 122,52 123,52 125,54 125,55 130,55 130,54 132,52 133,52 134,51 139,51 141,49 141,47 140,46 140,45 141,44 141,43 143,41 144,41 145,40 145,36 144,35 143,35 141,33 141,31 140,30 141,29 141,27 138,24 137,25 134,25 133,24 132,24 130,22 130,21" /><polygon fill="black" points="126,9 125,10 119,10 118,11 117,11 116,12 115,12 114,13 113,13 111,15 110,15 104,21 104,22 103,23 103,24 102,25 102,26 101,27 101,28 100,29 100,32 99,33 99,43 100,44 100,47 101,48 101,49 102,50 102,51 103,52 103,53 107,53 107,49 106,48 106,46 105,45 105,42 104,41 104,35 105,34 105,31 106,30 106,28 107,27 107,26 110,23 110,22 112,20 113,20 116,17 117,17 118,16 120,16 121,15 126,15 127,14 128,14 129,15 134,15 135,16 136,16 138,18 138,20 139,21 146,21 147,20 147,16 146,15 146,13 144,11 143,11 142,12 139,12 138,11 136,11 135,10 130,10 129,9" /></svg>