<?xml version="1.0" standalone="no"?>
<!DOCTYPE svg PUBLIC "-//W3C//DTD SVG 20010904//EN"
 "http://www.w3.org/TR/2001/REC-SVG-20010904/DTD/svg10.dtd">
<svg version="1.0" xmlns="http://www.w3.org/2000/svg"
 width="512.000000pt" height="512.000000pt" viewBox="0 0 512.000000 512.000000"
 preserveAspectRatio="xMidYMid meet">

<g transform="translate(0.000000,512.000000) scale(0.100000,-0.100000)"
fill="#000000" stroke="none">
<path d="M675 5030 c-146 -27 -271 -94 -380 -204 -92 -93 -144 -177 -182 -291
-23 -70 -27 -96 -27 -215 0 -126 2 -141 31 -223 39 -111 82 -182 161 -268 100
-108 263 -198 391 -215 l51 -7 0 -300 c0 -206 4 -313 12 -341 16 -55 99 -138
154 -154 23 -7 85 -12 138 -12 l96 0 0 80 0 80 -95 0 c-88 0 -98 2 -120 25
l-25 24 0 299 0 299 52 7 c131 18 296 111 399 224 72 80 115 153 152 259 29
82 31 97 31 223 0 119 -4 145 -27 215 -38 115 -91 199 -182 290 -139 140 -284
203 -475 210 -58 2 -127 0 -155 -5z m448 -469 c26 -27 47 -53 47 -58 0 -4
-119 -127 -265 -273 l-265 -265 -105 105 c-58 58 -105 108 -105 113 0 10 96
107 106 107 5 0 30 -21 56 -47 l48 -48 208 208 c114 114 211 207 217 207 5 0
31 -22 58 -49z"/>
<path d="M4640 4880 l0 -80 -160 0 -160 0 0 -80 0 -80 -160 0 -160 0 0 -280
c0 -261 -1 -280 -18 -280 -9 0 -82 -65 -161 -144 -105 -105 -141 -147 -135
-157 5 -8 27 -38 48 -67 l39 -54 131 131 131 131 463 0 462 0 0 520 0 520
-160 0 -160 0 0 -80z"/>
<path d="M2420 4153 c-76 -8 -199 -37 -280 -65 -191 -68 -331 -157 -481 -307
-190 -190 -298 -389 -356 -653 -25 -115 -24 -379 1 -496 56 -260 178 -485 361
-666 76 -75 211 -173 293 -215 l42 -21 0 -105 0 -105 -55 0 c-67 0 -105 -29
-105 -80 0 -19 9 -40 25 -55 l24 -25 671 0 671 0 24 25 c33 32 33 78 0 110
-20 21 -34 25 -80 25 l-55 0 0 105 0 105 43 21 c146 75 358 265 454 409 97
145 163 303 199 475 26 125 26 365 0 490 -127 612 -659 1044 -1271 1033 -49 0
-106 -3 -125 -5z m462 -304 c29 -91 46 -101 114 -66 98 49 74 62 300 -164 112
-112 204 -210 204 -217 0 -7 -14 -40 -31 -74 -41 -81 -34 -96 60 -126 l71 -23
0 -299 0 -299 -71 -23 c-94 -30 -101 -45 -60 -126 17 -34 31 -67 31 -74 0 -7
-92 -105 -204 -217 -226 -226 -202 -213 -300 -164 -68 35 -85 25 -114 -66
l-23 -71 -299 0 -299 0 -23 71 c-30 94 -45 101 -126 60 -34 -17 -67 -31 -74
-31 -17 0 -418 401 -418 418 0 7 14 40 31 74 41 81 34 95 -60 127 l-71 24 0
297 0 297 71 24 c94 32 101 46 60 127 -17 34 -31 67 -31 74 0 17 401 418 418
418 7 0 40 -14 74 -31 81 -41 96 -34 126 60 l23 71 299 0 299 0 23 -71z"/>
<path d="M2355 3704 l-20 -55 -82 -33 -83 -33 -52 24 -52 24 -128 -129 -129
-128 24 -52 24 -52 -33 -83 -33 -82 -55 -20 -56 -20 0 -185 0 -185 56 -20 55
-20 33 -82 33 -83 -24 -52 -24 -52 129 -128 128 -129 52 24 52 24 83 -33 82
-33 20 -55 20 -56 185 0 185 0 20 56 20 55 82 33 83 33 52 -24 52 -24 128 129
129 128 -24 52 -24 52 33 83 33 82 55 20 56 20 0 185 0 185 -56 20 -55 20 -33
82 -33 83 24 52 24 52 -129 128 -128 129 -52 -24 -52 -24 -83 33 -82 33 -20
55 -20 56 -185 0 -185 0 -20 -56z m311 -275 c98 -17 213 -79 288 -155 219
-218 219 -567 1 -787 -181 -183 -460 -218 -683 -85 -333 199 -363 683 -57 915
137 105 287 142 451 112z"/>
<path d="M2480 3107 c-49 -16 -133 -102 -148 -153 -28 -94 -8 -169 63 -239
102 -103 243 -101 338 5 90 100 90 220 0 320 -65 72 -158 97 -253 67z"/>
<path d="M4000 2880 l0 -80 95 0 c88 0 98 -2 120 -25 l25 -24 0 -621 0 -620
-29 0 c-47 0 -180 -46 -251 -87 -79 -46 -213 -178 -259 -256 -18 -31 -47 -96
-64 -144 -29 -82 -31 -97 -31 -223 0 -119 4 -145 27 -215 38 -115 91 -199 182
-290 91 -91 175 -144 290 -182 71 -23 96 -26 215 -26 119 0 144 3 215 26 115
38 199 91 290 182 91 91 144 175 182 290 23 70 27 96 27 215 0 126 -2 141 -31
223 -39 110 -82 182 -160 267 -102 110 -262 199 -391 216 l-52 7 0 620 c0 450
-3 631 -12 659 -6 22 -31 62 -55 88 -57 63 -106 80 -235 80 l-98 0 0 -80z
m641 -1837 c27 -27 49 -53 49 -58 0 -6 -119 -129 -265 -275 l-265 -265 -105
105 c-58 58 -105 108 -105 112 0 11 96 108 106 108 5 0 30 -21 56 -47 l48 -48
208 208 c114 114 211 207 215 207 5 0 31 -21 58 -47z"/>
<path d="M800 2307 c-49 -16 -133 -102 -148 -153 -9 -30 -12 -169 -12 -498 l0
-456 -176 0 c-110 0 -192 -5 -218 -12 -55 -16 -138 -99 -154 -154 -17 -58 -17
-730 0 -788 16 -55 99 -138 154 -154 59 -17 1209 -17 1268 0 55 16 138 99 154
154 17 57 17 730 0 786 -17 59 -88 133 -145 152 -26 9 -55 16 -65 16 -16 0
-18 10 -18 88 0 63 -6 98 -19 128 -45 100 -167 133 -261 70 -31 -20 -51 -50
-104 -155 l-67 -131 -94 0 -95 0 0 455 0 456 25 24 24 25 231 0 c128 0 230 3
228 8 -1 4 -19 39 -38 79 l-35 72 -200 -1 c-117 0 -215 -5 -235 -11z m560
-1507 l0 -80 -480 0 -480 0 0 80 0 80 480 0 480 0 0 -80z m-320 -320 l0 -80
-320 0 -320 0 0 80 0 80 320 0 320 0 0 -80z m320 0 l0 -80 -80 0 -80 0 0 80 0
80 80 0 80 0 0 -80z"/>
<path d="M2025 1175 c-16 -15 -25 -36 -25 -55 0 -19 9 -40 25 -55 l24 -25 511
0 511 0 24 25 c16 15 25 36 25 55 0 19 -9 40 -25 55 l-24 25 -511 0 -511 0
-24 -25z"/>
<path d="M2185 855 c-16 -15 -25 -36 -25 -55 0 -19 9 -40 25 -55 l24 -25 351
0 351 0 24 25 c16 15 25 36 25 55 0 19 -9 40 -25 55 l-24 25 -351 0 -351 0
-24 -25z"/>
<path d="M2320 504 c0 -87 18 -133 75 -189 70 -71 145 -91 239 -63 55 16 138
99 154 154 7 23 12 67 12 98 l0 56 -240 0 -240 0 0 -56z"/>
</g>
</svg>
